# xmcd CD database file
#
# Track frame offsets:
#	150
#	22438
#	38868
#
# Disc length: 813 seconds
#
# Revision: 0
# Processed by: cddbd v1.5.1PL0 Copyright (c) Steve Scherf et al.
# Submitted via: CDex 1.51
#
DISCID=24032b03
DTITLE=筋肉少女帯 - 踊るダメ人間
DYEAR=1991
DGENRE=Rock
TTITLE0=踊るダメ人間
TTITLE1=風車男ルリヲ（ライブ・バージョン）
TTITLE2=踊るダメ人間（オリジナル・カラオケ）
EXTD=YEAR: 1991
EXTT0=
EXTT1=
EXTT2=
PLAYORDER=
